<svg width="23" height="23" viewBox="0 0 23 23" fill="none" xmlns="http://www.w3.org/2000/svg">
<rect y="0.0887451" width="22.7221" height="22.7221" rx="6.81664" fill="#1F2630"/>
<g clip-path="url(#clip0_152_6391)">
<path d="M14.2997 11.4686C14.5233 11.4066 14.7847 11.3911 15.0186 11.4876C15.1063 11.5238 15.1923 11.5652 15.2783 11.61C15.3626 11.6548 15.4434 11.7048 15.5242 11.76C15.6876 11.8686 15.8355 11.9962 15.9783 12.1444C16.2569 12.4392 16.4873 12.8133 16.6301 13.2546C16.7745 13.6942 16.8313 14.1976 16.7745 14.7251C16.7178 15.2509 16.5458 15.799 16.2569 16.3162C16.0849 16.6213 15.7977 16.8644 15.4967 16.9868C15.421 17.0178 15.3436 17.0402 15.2697 17.0558C15.194 17.073 15.1218 17.0816 15.0478 17.0816C14.9034 17.0816 14.771 17.0558 14.6557 16.9937C14.4287 16.873 14.3238 16.6593 14.3118 16.43C14.2997 16.199 14.3737 15.9473 14.5285 15.7197C14.7176 15.4336 14.8483 15.1198 14.9154 14.8026C14.9825 14.4872 14.9877 14.1717 14.9361 13.8769C14.924 13.8028 14.9051 13.7304 14.8862 13.6597C14.8759 13.6252 14.8673 13.5907 14.8552 13.5563C14.8432 13.5218 14.8312 13.4873 14.8174 13.4528C14.7916 13.3856 14.7641 13.3201 14.7331 13.258C14.7004 13.1943 14.6661 13.1322 14.6299 13.0736C14.4838 12.8374 14.2963 12.6357 14.0848 12.4702C13.9093 12.3306 13.7958 12.1823 13.7563 12.0548C13.7116 11.9237 13.7408 11.8082 13.856 11.6979C13.9076 11.6479 13.9713 11.6031 14.0486 11.5652C14.1226 11.5255 14.2069 11.4928 14.2997 11.4669V11.4686Z" fill="#FCD434"/>
<path d="M12.7732 14.0234C12.9365 14.1855 13.081 14.4044 13.1154 14.6561C13.1292 14.7509 13.136 14.844 13.1395 14.9405C13.1429 15.0354 13.1412 15.1336 13.1343 15.2302C13.1274 15.3267 13.1154 15.4232 13.0982 15.5232C13.081 15.6232 13.0569 15.718 13.0277 15.8163C12.9125 16.2059 12.7027 16.5938 12.3948 16.9385C12.087 17.2833 11.6811 17.5833 11.1996 17.797C10.7197 18.0108 10.1574 18.1401 9.56577 18.1453C9.21493 18.1504 8.85893 18.0194 8.60268 17.8194C8.34472 17.6177 8.1865 17.3505 8.17618 17.0937C8.16758 16.8351 8.3 16.6386 8.4909 16.5145C8.58721 16.4524 8.70071 16.4058 8.82282 16.3765C8.9432 16.3507 9.07735 16.3369 9.21321 16.3472C9.55545 16.3696 9.89253 16.3248 10.1986 16.2266C10.3517 16.1783 10.4979 16.1111 10.632 16.0387C10.7008 15.999 10.7662 15.9594 10.8281 15.9163C10.89 15.8749 10.9502 15.8249 11.0069 15.7784C11.1205 15.6853 11.2236 15.5749 11.3148 15.4663C11.3595 15.4112 11.4025 15.3508 11.4421 15.2922C11.4816 15.2319 11.5177 15.175 11.5504 15.1129C11.6828 14.8664 11.7637 14.6027 11.8015 14.3389C11.817 14.2269 11.8445 14.1286 11.8789 14.0458C11.8961 14.0027 11.9133 13.9648 11.9339 13.9321C11.9442 13.9148 11.9546 13.8993 11.9649 13.8855C11.9752 13.87 11.9855 13.8562 11.9975 13.8424C12.0904 13.7442 12.2022 13.7045 12.3535 13.7511C12.3879 13.7614 12.4223 13.7752 12.4584 13.7924C12.4928 13.8097 12.529 13.8286 12.5634 13.851C12.6339 13.8976 12.7061 13.9562 12.7732 14.0217V14.0234Z" fill="#FCD434"/>
<path d="M9.80432 13.9751C9.74585 14.1975 9.62891 14.432 9.42769 14.5888C9.13017 14.8164 8.77589 14.9991 8.38206 15.0905C7.98823 15.1853 7.54968 15.1974 7.09738 15.1026C6.64679 15.0095 6.18417 14.8078 5.75594 14.4958C5.32772 14.1837 4.94076 13.7579 4.63808 13.2477C4.46094 12.9443 4.39043 12.5719 4.43859 12.2495C4.44375 12.2099 4.45062 12.1702 4.45922 12.1306C4.46782 12.0927 4.47986 12.0547 4.4919 12.0185C4.51598 11.9461 4.54521 11.8772 4.58133 11.8151C4.65184 11.6893 4.74643 11.5893 4.85477 11.5203C5.07147 11.3841 5.30708 11.3997 5.51345 11.5031C5.61664 11.5548 5.71295 11.6289 5.79722 11.7203C5.84021 11.7668 5.88149 11.8168 5.9176 11.8703C5.95372 11.9237 5.98639 11.9823 6.01907 12.0444C6.17041 12.353 6.37507 12.6236 6.61412 12.8408C6.85317 13.058 7.12489 13.2184 7.4035 13.3218C7.54624 13.3718 7.68383 13.4097 7.82829 13.4304C7.96931 13.4528 8.11205 13.4597 8.24964 13.4562C8.38722 13.4528 8.52652 13.4321 8.65723 13.4045C8.78965 13.3752 8.92035 13.3339 9.04418 13.2856C9.14736 13.2442 9.24883 13.2166 9.33654 13.2063C9.37954 13.2011 9.42253 13.1977 9.46209 13.1977C9.50164 13.1977 9.53604 13.2028 9.57043 13.2097C9.70458 13.239 9.794 13.3201 9.83012 13.4769C9.8628 13.6166 9.8542 13.7924 9.80604 13.9769L9.80432 13.9751Z" fill="#FCD434"/>
<path d="M8.36171 11.3704C8.13814 11.4324 7.87673 11.4479 7.64284 11.3514C7.55513 11.3152 7.46914 11.2738 7.38315 11.229C7.29888 11.1842 7.21805 11.1342 7.13722 11.079C6.97384 10.9704 6.82594 10.8429 6.6832 10.6946C6.40459 10.3998 6.17414 10.0257 6.0314 9.58442C5.88694 9.14483 5.83019 8.64145 5.88694 8.11394C5.94369 7.58816 6.11567 7.03996 6.40459 6.52279C6.57657 6.21766 6.86378 5.9746 7.16474 5.8522C7.24041 5.82117 7.3178 5.79876 7.39175 5.78324C7.46742 5.766 7.53965 5.75739 7.6136 5.75739C7.75807 5.75739 7.89049 5.78324 8.00572 5.8453C8.23273 5.96598 8.33764 6.17974 8.34967 6.40902C8.36171 6.64002 8.28776 6.8917 8.13298 7.11926C7.9438 7.40542 7.8131 7.71917 7.74603 8.03637C7.67896 8.35184 7.6738 8.66731 7.72539 8.96209C7.73743 9.03622 7.75635 9.10862 7.77526 9.1793C7.78558 9.21378 7.79418 9.24826 7.80622 9.28274C7.81826 9.31722 7.8303 9.35169 7.84406 9.38617C7.86985 9.4534 7.89737 9.51891 7.92833 9.58097C7.961 9.64475 7.9954 9.70681 8.03151 9.76543C8.1777 10.0016 8.36515 10.2033 8.57669 10.3688C8.7521 10.5084 8.86561 10.6567 8.90517 10.7842C8.94988 10.9153 8.92064 11.0308 8.80542 11.1411C8.75382 11.1911 8.69019 11.2359 8.6128 11.2738C8.53885 11.3135 8.45458 11.3462 8.36171 11.3721V11.3704Z" fill="#FCD434"/>
<path d="M9.88976 8.81557C9.72638 8.65352 9.58192 8.43459 9.54753 8.1829C9.53377 8.08809 9.52689 7.995 9.52345 7.89846C9.52001 7.80365 9.52173 7.70538 9.52861 7.60885C9.53549 7.51231 9.54753 7.41577 9.56472 7.31579C9.58192 7.2158 9.606 7.12099 9.63523 7.02272C9.75046 6.63313 9.96027 6.24525 10.2681 5.9022C10.576 5.55742 10.9818 5.25746 11.4634 5.0437C11.9449 4.82821 12.5056 4.69892 13.0989 4.69375C13.4497 4.68858 13.8057 4.8196 14.062 5.01957C14.3199 5.22126 14.4782 5.48846 14.4885 5.74532C14.4971 6.00391 14.3647 6.20043 14.1738 6.32455C14.0774 6.38661 13.9639 6.43316 13.8418 6.46246C13.7214 6.48832 13.5873 6.50211 13.4514 6.49177C13.1092 6.46936 12.7721 6.51418 12.466 6.61244C12.3129 6.66071 12.1668 6.72794 12.0326 6.80034C11.9638 6.83999 11.8985 6.87964 11.8366 6.92274C11.7747 6.96411 11.7145 7.01411 11.6577 7.06065C11.5442 7.15374 11.441 7.26407 11.3499 7.37267C11.3051 7.42784 11.2622 7.48817 11.2226 7.54679C11.183 7.60712 11.1469 7.66401 11.1143 7.72607C10.9818 7.97259 10.901 8.23634 10.8632 8.5001C10.8477 8.61215 10.8202 8.71041 10.7858 8.79316C10.7686 8.83626 10.7514 8.87418 10.7307 8.90694C10.7204 8.92417 10.7101 8.93969 10.6998 8.95348C10.6895 8.969 10.6791 8.98279 10.6671 8.99658C10.5742 9.09484 10.4625 9.13449 10.3111 9.08794C10.2767 9.0776 10.2423 9.06381 10.2062 9.04657C10.1718 9.02933 10.1357 9.01037 10.1013 8.98796C10.0308 8.94314 9.95855 8.8828 9.89148 8.81729L9.88976 8.81557Z" fill="#FCD434"/>
<path d="M12.8568 8.86381C12.9153 8.64143 13.0322 8.40698 13.2335 8.2501C13.531 8.02255 13.8853 7.83982 14.2791 7.74845C14.6729 7.65364 15.1115 7.64157 15.5638 7.73638C16.0144 7.82947 16.477 8.03117 16.9052 8.34319C17.3334 8.65522 17.7204 9.08102 18.0231 9.59129C18.2002 9.89469 18.2707 10.2671 18.2226 10.5894C18.2174 10.6291 18.2105 10.6687 18.2019 10.7084C18.1933 10.7463 18.1813 10.7842 18.1693 10.8221C18.1452 10.8945 18.1159 10.9635 18.0798 11.0256C18.0093 11.1514 17.9147 11.2514 17.8064 11.3203C17.5897 11.4565 17.3541 11.441 17.1477 11.3376C17.0445 11.2859 16.9482 11.2117 16.8639 11.1204C16.8209 11.0738 16.7797 11.0238 16.7436 10.9704C16.7074 10.917 16.6748 10.8583 16.6421 10.7963C16.4907 10.4877 16.2861 10.2171 16.047 9.99985C15.808 9.78264 15.5363 9.62232 15.2577 9.51889C15.1149 9.46889 14.9773 9.43097 14.8329 9.41028C14.6918 9.38787 14.5491 9.38097 14.4115 9.38442C14.2739 9.38787 14.1346 9.40856 14.0039 9.43614C13.8715 9.46544 13.7408 9.50682 13.617 9.55509C13.5138 9.59646 13.4123 9.62404 13.3246 9.63439C13.2816 9.63956 13.2386 9.64301 13.1991 9.64301C13.1595 9.64301 13.1251 9.63783 13.0907 9.63094C12.9566 9.60163 12.8671 9.52061 12.831 9.36374C12.7984 9.2241 12.807 9.04826 12.8551 8.86381H12.8568Z" fill="#FCD434"/>
</g>
<defs>
<clipPath id="clip0_152_6391">
<rect width="13.8151" height="13.4515" fill="white" transform="translate(4.42383 4.69376)"/>
</clipPath>
</defs>
</svg>
