<svg width="16" height="16" viewBox="0 0 16 16" fill="none" xmlns="http://www.w3.org/2000/svg">
<rect width="16" height="16" rx="8" fill="#220058"/>
<path d="M5.64534 9.57681C5.66609 9.55322 5.69104 9.53452 5.71865 9.52187C5.74627 9.50922 5.77595 9.50288 5.80589 9.50324H11.3869C11.4025 9.5041 11.4177 9.50831 11.4317 9.51563C11.4458 9.52296 11.4583 9.53326 11.4687 9.54593C11.4791 9.5586 11.4871 9.57339 11.4922 9.58945C11.4973 9.60551 11.4995 9.62252 11.4986 9.6395C11.4973 9.6705 11.4862 9.70005 11.4672 9.7231L10.3648 10.926C10.3222 10.9727 10.2645 10.9991 10.2042 10.9996H4.62316C4.59883 11.0018 4.57451 10.9953 4.55378 10.9812C4.53305 10.9671 4.517 10.9461 4.50801 10.9213C4.49902 10.8965 4.49755 10.8692 4.50383 10.8434C4.51011 10.8176 4.5238 10.7947 4.54289 10.7781L5.64534 9.57681Z" fill="url(#paint0_linear_356_11773)"/>
<path d="M5.64534 5.0744C5.68781 5.02746 5.7455 5.00072 5.80589 5H11.3869C11.4094 5.00034 11.4312 5.00789 11.4498 5.02169C11.4684 5.03549 11.4828 5.05494 11.4914 5.07764C11.4999 5.10033 11.5022 5.12527 11.4979 5.14936C11.4936 5.17346 11.4829 5.19564 11.4672 5.21317L10.3648 6.42362C10.3222 6.47025 10.2645 6.49668 10.2042 6.49718H4.62316C4.59186 6.49524 4.56253 6.47981 4.54161 6.45427C4.52069 6.42873 4.50987 6.39516 4.51154 6.36092C4.51281 6.32992 4.52389 6.30037 4.54289 6.27733L5.64534 5.0744Z" fill="url(#paint1_linear_356_11773)"/>
<path d="M10.3648 7.31139C10.3439 7.28785 10.319 7.26913 10.2914 7.25634C10.2638 7.24356 10.2342 7.23698 10.2042 7.23699H4.62316C4.59186 7.23893 4.56253 7.25437 4.54161 7.27991C4.52069 7.30545 4.50987 7.33901 4.51154 7.37325C4.51268 7.40428 4.52378 7.43388 4.54289 7.45685L5.64534 8.65643C5.66616 8.67998 5.69111 8.6987 5.71869 8.71148C5.74628 8.72426 5.77593 8.73084 5.80589 8.73083H11.3869C11.4094 8.73048 11.4312 8.72294 11.4498 8.70914C11.4684 8.69534 11.4828 8.67589 11.4914 8.65319C11.4999 8.6305 11.5022 8.60556 11.4979 8.58146C11.4936 8.55737 11.4829 8.53519 11.4672 8.51766L10.3648 7.31139Z" fill="url(#paint2_linear_356_11773)"/>
<defs>
<linearGradient id="paint0_linear_356_11773" x1="10.8529" y1="-15.937" x2="-4.29445" y2="-9.3181" gradientUnits="userSpaceOnUse">
<stop stop-color="#00FFA3"/>
<stop offset="1" stop-color="#DC1FFF"/>
</linearGradient>
<linearGradient id="paint1_linear_356_11773" x1="9.16142" y1="-1.74707" x2="-6.00521" y2="4.89894" gradientUnits="userSpaceOnUse">
<stop stop-color="#00FFA3"/>
<stop offset="1" stop-color="#DC1FFF"/>
</linearGradient>
<linearGradient id="paint2_linear_356_11773" x1="10.0062" y1="3.79706" x2="5.57074" y2="11.5635" gradientUnits="userSpaceOnUse">
<stop stop-color="#00FFA3"/>
<stop offset="1" stop-color="#DC1FFF"/>
</linearGradient>
</defs>
</svg>
