<svg width="91" height="90" viewBox="0 0 91 90" fill="none" xmlns="http://www.w3.org/2000/svg">
<path d="M1.0957 45C1.0957 20.458 20.9909 0.562498 45.5329 0.562498C70.075 0.562498 89.9702 20.458 89.9702 45C89.9702 69.542 70.075 89.4375 45.5329 89.4375C20.9909 89.4375 1.0957 69.542 1.0957 45Z" fill="#1D212D" stroke="url(#paint0_linear_457_79396)" stroke-width="1.125"/>
<rect width="12.3155" height="36.2222" rx="6.15776" transform="matrix(-0.866024 0.500002 0.499998 0.866027 48.4023 18)" fill="url(#paint1_linear_457_79396)"/>
<rect width="12.3155" height="12.3156" rx="6.15776" transform="matrix(-0.866024 0.500002 0.499998 0.866027 48.4023 18)" fill="#80F6BC"/>
<rect width="12.3155" height="36.2222" rx="6.15776" transform="matrix(-0.866024 0.500002 -0.499998 -0.866027 52.9355 66.4131)" fill="url(#paint2_linear_457_79396)"/>
<rect width="12.3155" height="12.3156" rx="6.15776" transform="matrix(-0.866024 0.500002 -0.499998 -0.866027 52.9355 66.4131)" fill="#80F6BC"/>
<defs>
<linearGradient id="paint0_linear_457_79396" x1="45.5329" y1="0" x2="45.5329" y2="90" gradientUnits="userSpaceOnUse">
<stop stop-color="#80F6BC"/>
<stop offset="1" stop-color="#80F6BC" stop-opacity="0"/>
</linearGradient>
<linearGradient id="paint1_linear_457_79396" x1="6.15776" y1="0" x2="6.15776" y2="36.2222" gradientUnits="userSpaceOnUse">
<stop stop-color="#80F6BC"/>
<stop offset="1" stop-color="#80F6BC" stop-opacity="0"/>
</linearGradient>
<linearGradient id="paint2_linear_457_79396" x1="6.15776" y1="0" x2="6.15776" y2="36.2222" gradientUnits="userSpaceOnUse">
<stop stop-color="#80F6BC"/>
<stop offset="1" stop-color="#80F6BC" stop-opacity="0"/>
</linearGradient>
</defs>
</svg>
