<svg width="14" height="14" viewBox="0 0 14 14" fill="none" xmlns="http://www.w3.org/2000/svg">
<path d="M6.99984 1.16675C3.78567 1.16675 1.1665 3.78591 1.1665 7.00008C1.1665 10.2142 3.78567 12.8334 6.99984 12.8334C10.214 12.8334 12.8332 10.2142 12.8332 7.00008C12.8332 3.78591 10.214 1.16675 6.99984 1.16675ZM8.95984 8.34175C9.129 8.51092 9.129 8.79092 8.95984 8.96008C8.87234 9.04758 8.7615 9.08842 8.65067 9.08842C8.53984 9.08842 8.429 9.04758 8.3415 8.96008L6.99984 7.61842L5.65817 8.96008C5.57067 9.04758 5.45984 9.08842 5.349 9.08842C5.23817 9.08842 5.12734 9.04758 5.03984 8.96008C4.87067 8.79092 4.87067 8.51092 5.03984 8.34175L6.3815 7.00008L5.03984 5.65841C4.87067 5.48925 4.87067 5.20925 5.03984 5.04008C5.209 4.87092 5.489 4.87092 5.65817 5.04008L6.99984 6.38175L8.3415 5.04008C8.51067 4.87092 8.79067 4.87092 8.95984 5.04008C9.129 5.20925 9.129 5.48925 8.95984 5.65841L7.61817 7.00008L8.95984 8.34175Z" fill="#F47272"/>
</svg>
