<svg width="72" height="72" viewBox="0 0 72 72" fill="none" xmlns="http://www.w3.org/2000/svg">
<path opacity="0.4" d="M36 66C52.5685 66 66 52.5685 66 36C66 19.4315 52.5685 6 36 6C19.4315 6 6 19.4315 6 36C6 52.5685 19.4315 66 36 66Z" fill="#FFA73D"/>
<path d="M36 41.25C37.23 41.25 38.25 40.23 38.25 39V24C38.25 22.77 37.23 21.75 36 21.75C34.77 21.75 33.75 22.77 33.75 24V39C33.75 40.23 34.77 41.25 36 41.25Z" fill="#FFA73D"/>
<path d="M38.76 46.8601C38.61 46.5001 38.4 46.1701 38.13 45.8701C37.83 45.6001 37.5 45.3901 37.14 45.2401C36.42 44.9401 35.58 44.9401 34.86 45.2401C34.5 45.3901 34.17 45.6001 33.87 45.8701C33.6 46.1701 33.39 46.5001 33.24 46.8601C33.09 47.2201 33 47.6101 33 48.0001C33 48.3901 33.09 48.7801 33.24 49.1401C33.39 49.5301 33.6 49.8301 33.87 50.1301C34.17 50.4001 34.5 50.6101 34.86 50.7601C35.22 50.9101 35.61 51.0001 36 51.0001C36.39 51.0001 36.78 50.9101 37.14 50.7601C37.5 50.6101 37.83 50.4001 38.13 50.1301C38.4 49.8301 38.61 49.5301 38.76 49.1401C38.91 48.7801 39 48.3901 39 48.0001C39 47.6101 38.91 47.2201 38.76 46.8601Z" fill="#FFA73D"/>
</svg>
