<svg width="14" height="14" viewBox="0 0 14 14" fill="none" xmlns="http://www.w3.org/2000/svg">
<path d="M8.48734 13.0784C8.29484 13.0784 8.114 12.9501 8.0615 12.7517C8.00317 12.5184 8.13734 12.2792 8.37067 12.2151C10.739 11.5909 12.3898 9.44425 12.3898 6.99425C12.3898 4.01925 9.969 1.59841 6.994 1.59841C4.46817 1.59841 2.8115 3.07425 2.03567 3.96675H3.75067C3.98984 3.96675 4.18817 4.16508 4.18817 4.40425C4.18817 4.64341 4.0015 4.84758 3.7565 4.84758H1.17234C1.1315 4.84758 1.09067 4.84175 1.04984 4.83008C0.997337 4.81258 0.950671 4.78925 0.909837 4.76008C0.857337 4.72508 0.816504 4.67841 0.787337 4.62591C0.758171 4.56758 0.734837 4.50925 0.729004 4.44508C0.729004 4.42758 0.729004 4.41591 0.729004 4.39841V1.75008C0.729004 1.51091 0.927337 1.31258 1.1665 1.31258C1.40567 1.31258 1.604 1.51091 1.604 1.75008V3.14425C2.55484 2.12341 4.34567 0.729248 6.99984 0.729248C10.459 0.729248 13.2707 3.54091 13.2707 7.00008C13.2707 9.84675 11.3515 12.3434 8.59817 13.0667C8.56317 13.0726 8.52234 13.0784 8.48734 13.0784Z" fill="#FFA73D"/>
<path d="M6.58567 13.2592C6.574 13.2592 6.5565 13.2592 6.54484 13.2533C5.92067 13.2125 5.30817 13.0725 4.72484 12.845C4.55567 12.7808 4.44484 12.6117 4.44484 12.4308C4.44484 12.3783 4.4565 12.3258 4.474 12.2792C4.5615 12.0575 4.81817 11.9408 5.03984 12.0283C5.5415 12.2267 6.07234 12.3433 6.609 12.3842H6.61484C6.84817 12.3958 7.02317 12.5942 7.02317 12.8275C7.02317 12.8333 7.02317 12.845 7.02317 12.8508C7.00567 13.0783 6.81317 13.2592 6.58567 13.2592ZM3.3715 12.005C3.27234 12.005 3.179 11.9758 3.09734 11.9117C2.60734 11.5208 2.1815 11.06 1.82567 10.5408C1.77317 10.465 1.744 10.3833 1.744 10.2958C1.744 10.15 1.814 10.0158 1.9365 9.93417C2.129 9.8 2.41484 9.8525 2.54317 10.045C2.85234 10.4942 3.21984 10.8908 3.64567 11.2233C3.74484 11.305 3.809 11.4275 3.809 11.5617C3.809 11.6608 3.77984 11.76 3.71567 11.8417C3.634 11.9467 3.50567 12.005 3.3715 12.005ZM1.42317 9.15833C1.23067 9.15833 1.0615 9.03583 1.009 8.855C0.822337 8.25417 0.729004 7.63 0.729004 7C0.729004 6.76083 0.927337 6.5625 1.1665 6.5625C1.40567 6.5625 1.604 6.76083 1.604 7C1.604 7.5425 1.68567 8.07917 1.84317 8.5925C1.85484 8.63333 1.86067 8.68 1.86067 8.72667C1.86067 8.91917 1.73817 9.0825 1.55734 9.14083C1.51067 9.1525 1.46984 9.15833 1.42317 9.15833Z" fill="#FFA73D"/>
<path d="M6.99984 9.33341C8.2885 9.33341 9.33317 8.28875 9.33317 7.00008C9.33317 5.71142 8.2885 4.66675 6.99984 4.66675C5.71117 4.66675 4.6665 5.71142 4.6665 7.00008C4.6665 8.28875 5.71117 9.33341 6.99984 9.33341Z" fill="#FFA73D"/>
</svg>
