<svg width="14" height="14" viewBox="0 0 14 14" fill="none" xmlns="http://www.w3.org/2000/svg">
<path d="M8.48783 13.0784C8.29533 13.0784 8.11449 12.9501 8.06199 12.7517C8.00366 12.5184 8.13783 12.2792 8.37116 12.2151C10.7395 11.5909 12.3903 9.44425 12.3903 6.99425C12.3903 4.01925 9.96949 1.59841 6.99449 1.59841C4.46866 1.59841 2.81199 3.07425 2.03616 3.96675H3.75116C3.99033 3.96675 4.18866 4.16508 4.18866 4.40425C4.18866 4.64341 4.00199 4.84758 3.75699 4.84758H1.17283C1.13199 4.84758 1.09116 4.84175 1.05033 4.83008C0.997826 4.81258 0.951159 4.78925 0.910325 4.76008C0.857825 4.72508 0.816992 4.67841 0.787826 4.62591C0.758659 4.56758 0.735326 4.50925 0.729492 4.44508C0.729492 4.42758 0.729492 4.41591 0.729492 4.39841V1.75008C0.729492 1.51091 0.927826 1.31258 1.16699 1.31258C1.40616 1.31258 1.60449 1.51091 1.60449 1.75008V3.14425C2.55533 2.12341 4.34616 0.729248 7.00033 0.729248C10.4595 0.729248 13.2712 3.54091 13.2712 7.00008C13.2712 9.84675 11.352 12.3434 8.59866 13.0667C8.56366 13.0726 8.52283 13.0784 8.48783 13.0784Z" fill="#FFA73D"/>
<path d="M6.58616 13.2592C6.57449 13.2592 6.55699 13.2592 6.54533 13.2533C5.92116 13.2125 5.30866 13.0725 4.72533 12.845C4.55616 12.7808 4.44533 12.6117 4.44533 12.4308C4.44533 12.3783 4.45699 12.3258 4.47449 12.2792C4.56199 12.0575 4.81866 11.9408 5.04033 12.0283C5.54199 12.2267 6.07283 12.3433 6.60949 12.3842H6.61533C6.84866 12.3958 7.02366 12.5942 7.02366 12.8275C7.02366 12.8333 7.02366 12.845 7.02366 12.8508C7.00616 13.0783 6.81366 13.2592 6.58616 13.2592ZM3.37199 12.005C3.27283 12.005 3.17949 11.9758 3.09783 11.9117C2.60783 11.5208 2.18199 11.06 1.82616 10.5408C1.77366 10.465 1.74449 10.3833 1.74449 10.2958C1.74449 10.15 1.81449 10.0158 1.93699 9.93417C2.12949 9.8 2.41533 9.8525 2.54366 10.045C2.85283 10.4942 3.22033 10.8908 3.64616 11.2233C3.74533 11.305 3.80949 11.4275 3.80949 11.5617C3.80949 11.6608 3.78033 11.76 3.71616 11.8417C3.63449 11.9467 3.50616 12.005 3.37199 12.005ZM1.42366 9.15833C1.23116 9.15833 1.06199 9.03583 1.00949 8.855C0.822826 8.25417 0.729492 7.63 0.729492 7C0.729492 6.76083 0.927826 6.5625 1.16699 6.5625C1.40616 6.5625 1.60449 6.76083 1.60449 7C1.60449 7.5425 1.68616 8.07917 1.84366 8.5925C1.85533 8.63333 1.86116 8.68 1.86116 8.72667C1.86116 8.91917 1.73866 9.0825 1.55783 9.14083C1.51116 9.1525 1.47033 9.15833 1.42366 9.15833Z" fill="#FFA73D"/>
<path d="M7.00033 9.33341C8.28899 9.33341 9.33366 8.28875 9.33366 7.00008C9.33366 5.71142 8.28899 4.66675 7.00033 4.66675C5.71166 4.66675 4.66699 5.71142 4.66699 7.00008C4.66699 8.28875 5.71166 9.33341 7.00033 9.33341Z" fill="#FFA73D"/>
</svg>
