<svg width="14" height="14" viewBox="0 0 14 14" fill="none" xmlns="http://www.w3.org/2000/svg">
<path d="M12.5765 6.26495L11.7832 5.34329C11.6315 5.16829 11.509 4.84162 11.509 4.60829V3.61662C11.509 2.99829 11.0015 2.49079 10.3832 2.49079H9.39152C9.16402 2.49079 8.83152 2.36829 8.65652 2.21662L7.73485 1.42329C7.33235 1.07912 6.67318 1.07912 6.26485 1.42329L5.34902 2.22245C5.17402 2.36829 4.84152 2.49079 4.61402 2.49079H3.60485C2.98652 2.49079 2.47902 2.99829 2.47902 3.61662V4.61412C2.47902 4.84162 2.35652 5.16829 2.21068 5.34329L1.42318 6.27079C1.08485 6.67329 1.08485 7.32662 1.42318 7.72912L2.21068 8.65662C2.35652 8.83162 2.47902 9.15829 2.47902 9.38579V10.3833C2.47902 11.0016 2.98652 11.5091 3.60485 11.5091H4.61402C4.84152 11.5091 5.17402 11.6316 5.34902 11.7833L6.27068 12.5766C6.67318 12.9208 7.33235 12.9208 7.74068 12.5766L8.66235 11.7833C8.83735 11.6316 9.16402 11.5091 9.39735 11.5091H10.389C11.0073 11.5091 11.5149 11.0016 11.5149 10.3833V9.39162C11.5149 9.16412 11.6374 8.83162 11.789 8.65662L12.5823 7.73495C12.9207 7.33245 12.9207 6.66745 12.5765 6.26495ZM9.42652 5.89745L6.60902 8.71495C6.52735 8.79662 6.41652 8.84329 6.29985 8.84329C6.18318 8.84329 6.07235 8.79662 5.99068 8.71495L4.57902 7.30329C4.40985 7.13412 4.40985 6.85412 4.57902 6.68495C4.74818 6.51579 5.02818 6.51579 5.19735 6.68495L6.29985 7.78745L8.80818 5.27912C8.97735 5.10995 9.25735 5.10995 9.42652 5.27912C9.59568 5.44829 9.59568 5.72829 9.42652 5.89745Z" fill="#80F6BC"/>
</svg>
