<svg width="14" height="14" viewBox="0 0 14 14" fill="none" xmlns="http://www.w3.org/2000/svg">
<path d="M12.5766 6.26507L11.7833 5.34341C11.6316 5.16841 11.5091 4.84174 11.5091 4.60841V3.61674C11.5091 2.99841 11.0016 2.49091 10.3833 2.49091H9.39164C9.16414 2.49091 8.83164 2.36841 8.65664 2.21674L7.73497 1.42341C7.33247 1.07924 6.67331 1.07924 6.26497 1.42341L5.34914 2.22257C5.17414 2.36841 4.84164 2.49091 4.61414 2.49091H3.60497C2.98664 2.49091 2.47914 2.99841 2.47914 3.61674V4.61424C2.47914 4.84174 2.35664 5.16841 2.21081 5.34341L1.42331 6.27091C1.08497 6.67341 1.08497 7.32674 1.42331 7.72924L2.21081 8.65674C2.35664 8.83174 2.47914 9.15841 2.47914 9.38591V10.3834C2.47914 11.0017 2.98664 11.5092 3.60497 11.5092H4.61414C4.84164 11.5092 5.17414 11.6317 5.34914 11.7834L6.27081 12.5767C6.67331 12.9209 7.33247 12.9209 7.74081 12.5767L8.66247 11.7834C8.83747 11.6317 9.16414 11.5092 9.39747 11.5092H10.3891C11.0075 11.5092 11.515 11.0017 11.515 10.3834V9.39174C11.515 9.16424 11.6375 8.83174 11.7891 8.65674L12.5825 7.73507C12.9208 7.33257 12.9208 6.66757 12.5766 6.26507ZM9.42664 5.89757L6.60914 8.71507C6.52747 8.79674 6.41664 8.84341 6.29997 8.84341C6.18331 8.84341 6.07247 8.79674 5.99081 8.71507L4.57914 7.30341C4.40997 7.13424 4.40997 6.85424 4.57914 6.68507C4.74831 6.51591 5.02831 6.51591 5.19747 6.68507L6.29997 7.78757L8.80831 5.27924C8.97747 5.11007 9.25747 5.11007 9.42664 5.27924C9.59581 5.44841 9.59581 5.72841 9.42664 5.89757Z" fill="#F47272"/>
</svg>
