<svg width="14" height="14" viewBox="0 0 14 14" fill="none" xmlns="http://www.w3.org/2000/svg">
<path d="M12.577 6.26501L11.7837 5.34335C11.632 5.16835 11.5095 4.84168 11.5095 4.60835V3.61668C11.5095 2.99835 11.002 2.49085 10.3837 2.49085H9.392C9.16451 2.49085 8.83201 2.36835 8.657 2.21668L7.73534 1.42335C7.33284 1.07918 6.67367 1.07918 6.26534 1.42335L5.3495 2.22251C5.17451 2.36835 4.84201 2.49085 4.61451 2.49085H3.60534C2.987 2.49085 2.47951 2.99835 2.47951 3.61668V4.61418C2.47951 4.84168 2.35701 5.16835 2.21117 5.34335L1.42367 6.27085C1.08534 6.67335 1.08534 7.32668 1.42367 7.72918L2.21117 8.65668C2.35701 8.83168 2.47951 9.15835 2.47951 9.38585V10.3833C2.47951 11.0017 2.987 11.5092 3.60534 11.5092H4.61451C4.84201 11.5092 5.17451 11.6317 5.3495 11.7833L6.27117 12.5767C6.67367 12.9208 7.33284 12.9208 7.74117 12.5767L8.66284 11.7833C8.83784 11.6317 9.16451 11.5092 9.39784 11.5092H10.3895C11.0078 11.5092 11.5153 11.0017 11.5153 10.3833V9.39168C11.5153 9.16418 11.6378 8.83168 11.7895 8.65668L12.5828 7.73501C12.9212 7.33251 12.9212 6.66751 12.577 6.26501ZM9.427 5.89751L6.6095 8.71501C6.52784 8.79668 6.41701 8.84335 6.30034 8.84335C6.18367 8.84335 6.07284 8.79668 5.99117 8.71501L4.5795 7.30335C4.41034 7.13418 4.41034 6.85418 4.5795 6.68501C4.74867 6.51585 5.02867 6.51585 5.19784 6.68501L6.30034 7.78751L8.80867 5.27918C8.97784 5.11001 9.25784 5.11001 9.427 5.27918C9.59617 5.44835 9.59617 5.72835 9.427 5.89751Z" fill="#80F6BC"/>
</svg>
