<svg width="18" height="18" viewBox="0 0 18 18" fill="none" xmlns="http://www.w3.org/2000/svg">
<path d="M4.30502 12C4.38752 11.6325 4.23752 11.1075 3.97502 10.845L2.15252 9.0225C1.58252 8.4525 1.35752 7.845 1.52252 7.32C1.69502 6.795 2.22752 6.435 3.02252 6.3L5.36252 5.91C5.70002 5.85 6.11252 5.55 6.27002 5.2425L7.56002 2.655C7.93502 1.9125 8.44501 1.5 9.00001 1.5C9.55501 1.5 10.065 1.9125 10.44 2.655L11.73 5.2425C11.8275 5.4375 12.03 5.625 12.2475 5.7525L4.17002 13.83C4.06502 13.935 3.88502 13.8375 3.91502 13.6875L4.30502 12Z" fill="#338AF3"/>
<path d="M14.0246 10.8449C13.7546 11.1149 13.6046 11.6324 13.6946 11.9999L14.2121 14.2574C14.4296 15.1949 14.2946 15.8999 13.8296 16.2374C13.6421 16.3724 13.4171 16.4399 13.1546 16.4399C12.7721 16.4399 12.3221 16.2974 11.8271 16.0049L9.62961 14.6999C9.28461 14.4974 8.71461 14.4974 8.36961 14.6999L6.17211 16.0049C5.33961 16.4924 4.62711 16.5749 4.16961 16.2374C3.99711 16.1099 3.86961 15.9374 3.78711 15.7124L12.9071 6.59242C13.2521 6.24742 13.7396 6.08992 14.2121 6.17242L14.9696 6.29992C15.7646 6.43492 16.2971 6.79492 16.4696 7.31992C16.6346 7.84492 16.4096 8.45242 15.8396 9.02242L14.0246 10.8449Z" fill="#338AF3"/>
</svg>
