<svg width="18" height="18" viewBox="0 0 18 18" fill="none" xmlns="http://www.w3.org/2000/svg">
<path d="M16.5002 4.28262V11.4676C16.5002 13.5376 14.8202 15.2176 12.7502 15.2176H5.25024C4.90524 15.2176 4.57524 15.1726 4.25274 15.0826C3.78774 14.9551 3.63774 14.3626 3.98274 14.0176L11.9552 6.04512C12.1202 5.88012 12.3677 5.84262 12.6002 5.88762C12.8402 5.93262 13.1027 5.86512 13.2902 5.68512L15.2177 3.75012C15.9227 3.04512 16.5002 3.27762 16.5002 4.28262Z" fill="#FFB800"/>
<path d="M10.98 5.51989L3.1275 13.3724C2.7675 13.7324 2.1675 13.6424 1.9275 13.1924C1.65 12.6824 1.5 12.0899 1.5 11.4674V4.28239C1.5 3.27739 2.0775 3.04489 2.7825 3.74989L4.7175 5.69239C5.01 5.97739 5.49 5.97739 5.7825 5.69239L8.4675 2.99989C8.76 2.70739 9.24 2.70739 9.5325 2.99989L10.9875 4.45489C11.2725 4.74739 11.2725 5.22739 10.98 5.51989Z" fill="#FFB800"/>
</svg>
